<svg width="1757" height="378" viewBox="0 0 1757 378" fill="none" xmlns="http://www.w3.org/2000/svg">
<g filter="url(#filter0_d)">
<path d="M295.86 358.5H129.421C118.153 358.5 107.715 352.573 101.941 342.896L14.5196 196.373C8.50071 186.285 8.49298 173.71 14.4994 163.615L101.947 16.6379C107.716 6.94165 118.165 1 129.447 1H295.834C307.235 1 317.775 7.06608 323.503 16.9242L408.898 163.902C414.679 173.853 414.672 186.143 408.878 196.087L323.509 342.609C317.777 352.449 307.247 358.5 295.86 358.5Z" fill="url(#paint0_linear)"/>
</g>
<g filter="url(#filter1_d)">
<path fill-rule="evenodd" clip-rule="evenodd" d="M93.6868 99.2617C96.2752 94.7688 101.066 92 106.251 92H171.251C179.259 92 185.751 98.4919 185.751 106.5C185.751 114.508 179.259 121 171.251 121H131.42L149.105 151.5H206.251C214.259 151.5 220.751 157.992 220.751 166C220.751 174.008 214.259 180.5 206.251 180.5H140.751C135.58 180.5 130.801 177.746 128.207 173.273L93.707 113.773C91.1061 109.288 91.0984 103.755 93.6868 99.2617ZM209.233 99.1822C211.833 94.7341 216.599 92 221.751 92H288.751C293.889 92 298.644 94.7193 301.249 99.1482L336.249 158.648C338.52 162.509 338.879 167.202 337.223 171.363C336.802 172.42 336.251 174 335.11 176.357C333.77 179.412 331.806 183.734 329.263 188.906C325.977 195.589 321.689 203.763 316.495 212.5H323.751C331.759 212.5 338.251 218.992 338.251 227C338.251 235.008 331.759 241.5 323.751 241.5H296.703C289.473 250.625 281.27 259.453 272.17 266.881C258.322 278.185 241.435 287.012 222.113 287.495C193.572 288.209 160.598 274.241 136 262.5C125.111 257.302 84.2988 237.891 89.0001 222C90.8225 215.84 98.5763 212.5 105 212.5H282.087C282.476 211.936 282.863 211.37 283.247 210.803C290.509 200.087 296.522 189.337 301.038 180.5H255.251C250.015 180.5 245.185 177.677 242.616 173.114L209.116 113.614C206.588 109.124 206.633 103.63 209.233 99.1822ZM257.245 241.5H157.075C179.027 251.235 202.836 258.968 221.389 258.505C232.067 258.238 242.93 253.315 253.832 244.416C254.98 243.478 256.118 242.505 257.245 241.5ZM298.399 151.5L280.458 121H246.555L263.727 151.5H298.399Z" fill="white"/>
</g>
<g filter="url(#filter2_d)">
<path d="M528.399 204.33L534.372 234.035C535.023 237.27 535.255 239.917 534.769 241.976C534.156 246.388 532.166 249.917 525.266 249.917C522.566 249.917 520.288 249.035 518.493 247.564C514.842 244.329 512.214 240.211 510.672 234.035L485.063 106.684C484.772 103.743 484.539 101.096 484.966 98.7433C485.697 94.9199 487.569 90.8023 493.269 90.8023C496.569 90.8023 499.447 91.6846 501.243 93.1552C505.252 96.6845 507.58 100.802 508.763 106.684L514.737 136.39H545.037L539.063 106.684C537.048 98.1551 533.651 90.2141 528.991 83.4495C525.108 77.5672 519.725 71.685 512.838 67.2733C505.951 62.8616 497.259 59.9205 486.459 59.9205C475.659 59.9205 467.851 62.8616 462.738 67.2733C457.625 71.685 454.908 77.5672 453.391 83.4495C451.451 90.2141 451.248 98.1551 452.663 106.684L478.272 234.035C480.346 242.858 483.743 250.799 488.404 257.564C492.286 263.446 497.31 269.034 504.197 273.446C511.144 278.152 520.076 280.799 530.876 280.799C541.676 280.799 549.244 278.152 554.297 273.446C559.41 269.034 562.486 263.446 564.004 257.564C565.943 250.799 566.146 242.858 564.672 234.035L558.699 204.33H528.399ZM557.143 110.508C558.326 116.39 560.409 122.272 563.332 127.86C568.939 139.331 576.586 150.507 585.975 161.389C595.363 172.271 604.274 182.271 612.348 191.095C616.235 195.506 619.822 199.918 623.35 204.036C629.866 212.565 635.122 220.8 636.541 227.859C639.321 241.682 637.732 251.682 628.132 251.682C621.232 251.682 616.685 246.976 613.166 239.917C609.406 233.153 607.272 224.035 605.439 214.918L574.23 217.859C577.483 234.035 582.118 249.623 591.083 261.387C600.049 273.152 613.287 280.799 633.987 280.799C651.687 280.799 661.486 274.328 666.375 264.329C671.264 254.329 670.943 240.8 668.045 226.388C665.68 214.624 659.532 203.447 651.644 192.565C643.756 181.683 634.008 170.507 624.32 159.625C616.186 150.507 608.171 141.978 601.715 133.743C595.259 125.508 590.421 117.861 588.943 110.508C586.4 97.861 587.385 89.3317 595.725 89.0376C600.825 89.0376 604.953 93.1552 608.236 99.0375C611.578 105.214 613.475 113.155 614.895 120.214L646.103 117.272C643.678 105.214 638.98 90.8023 630.315 79.0378C621.708 67.5674 608.711 59.6264 589.27 59.9205C574.029 60.2146 564.89 66.9792 559.882 76.3908C554.934 86.0965 554.777 98.7433 557.143 110.508ZM752.289 139.919L745.606 106.684C743.591 98.1551 740.194 90.2141 735.534 83.4495C731.651 77.5672 726.268 71.685 719.381 67.2733C712.494 62.8616 703.802 59.9205 693.002 59.9205C682.202 59.9205 674.394 62.8616 669.281 67.2733C664.168 71.685 661.451 77.5672 659.934 83.4495C657.994 90.2141 657.791 98.1551 659.206 106.684L684.815 234.035C686.289 242.858 689.086 250.799 693.147 257.564C696.729 263.446 701.453 269.034 707.74 273.446C714.087 278.152 721.819 280.799 732.319 280.799C742.819 280.799 750.454 275.505 754.976 268.152L760.946 278.446H780.146L758.499 170.801H713.199L718.581 197.565H731.481L739.347 236.682C739.998 239.917 740.23 242.564 739.744 244.623C739.431 249.035 737.441 252.564 731.741 252.564C729.041 252.564 726.764 251.682 724.968 250.211C721.317 246.976 718.989 242.858 717.747 236.682L691.606 106.684C691.015 103.743 690.782 101.096 691.209 98.7433C691.64 94.9199 693.512 90.8023 699.212 90.8023C701.912 90.8023 704.49 91.6846 706.285 93.1552C709.995 96.6845 712.023 100.802 713.206 106.684L719.889 139.919H752.289ZM853.712 106.684C851.696 98.1551 848.3 90.2141 843.639 83.4495C839.756 77.5672 834.374 71.685 827.486 67.2733C820.599 62.8616 811.908 59.9205 801.108 59.9205C790.308 59.9205 782.499 62.8616 777.386 67.2733C772.274 71.685 769.556 77.5672 768.039 83.4495C766.1 90.2141 765.896 98.1551 767.312 106.684L792.921 234.035C794.995 242.858 798.392 250.799 803.052 257.564C806.935 263.446 811.959 269.034 818.846 273.446C825.792 278.152 834.724 280.799 845.524 280.799C856.324 280.799 863.892 278.152 868.946 273.446C874.059 269.034 877.135 263.446 878.652 257.564C880.592 250.799 880.795 242.858 879.321 234.035L853.712 106.684ZM846.921 234.035C847.571 237.27 847.803 239.917 847.317 241.976C847.005 246.388 845.014 249.917 839.314 249.917C836.614 249.917 834.337 249.035 832.541 247.564C828.891 244.329 826.563 240.211 825.321 234.035L799.712 106.684C799.12 103.743 798.888 101.096 799.315 98.7433C799.746 94.9199 801.618 90.8023 807.318 90.8023C810.018 90.8023 812.595 91.6846 814.391 93.1552C818.101 96.6845 820.129 100.802 821.312 106.684L846.921 234.035ZM1023.79 278.446L1017.17 142.566L1016.54 133.449H1018.34L1047.49 278.446H1077.49L1034.02 62.2734H994.425L995.097 161.095L995.903 172.566H995.303L991.497 161.095L952.425 62.2734H912.825L956.295 278.446H986.295L957.137 133.449H958.937L961.971 142.566L1009.99 278.446H1023.79ZM1124.11 278.446L1121.24 234.329H1152.44L1167.31 278.446H1198.81L1122.04 62.2734H1082.44L1092.61 278.446H1124.11ZM1141.19 200.8H1118.99L1114.57 132.566L1114.35 126.978H1116.15L1118.17 132.566L1141.19 200.8ZM1279.51 278.446H1308.31L1264.84 62.2734H1235.14L1259.81 184.918H1258.01L1253.3 174.918L1199.14 62.2734H1170.34L1213.81 278.446H1243.51L1218.85 155.801H1220.65L1225.36 165.801L1279.51 278.446ZM1354.67 278.446L1351.8 234.329H1383L1397.87 278.446H1429.37L1352.6 62.2734H1313L1323.17 278.446H1354.67ZM1371.76 200.8H1349.56L1345.14 132.566L1344.92 126.978H1346.72L1348.74 132.566L1371.76 200.8ZM1500.82 139.919L1494.14 106.684C1492.13 98.1551 1488.73 90.2141 1484.07 83.4495C1480.19 77.5672 1474.8 71.685 1467.92 67.2733C1461.03 62.8616 1452.34 59.9205 1441.54 59.9205C1430.74 59.9205 1422.93 62.8616 1417.82 67.2733C1412.7 71.685 1409.99 77.5672 1408.47 83.4495C1406.53 90.2141 1406.33 98.1551 1407.74 106.684L1433.35 234.035C1434.82 242.858 1437.62 250.799 1441.68 257.564C1445.26 263.446 1449.99 269.034 1456.28 273.446C1462.62 278.152 1470.35 280.799 1480.85 280.799C1491.35 280.799 1498.99 275.505 1503.51 268.152L1509.48 278.446H1528.68L1507.03 170.801H1461.73L1467.12 197.565H1480.02L1487.88 236.682C1488.53 239.917 1488.77 242.564 1488.28 244.623C1487.97 249.035 1485.98 252.564 1480.28 252.564C1477.58 252.564 1475.3 251.682 1473.5 250.211C1469.85 246.976 1467.52 242.858 1466.28 236.682L1440.14 106.684C1439.55 103.743 1439.32 101.096 1439.74 98.7433C1440.18 94.9199 1442.05 90.8023 1447.75 90.8023C1450.45 90.8023 1453.02 91.6846 1454.82 93.1552C1458.53 96.6845 1460.56 100.802 1461.74 106.684L1468.42 139.919H1500.82ZM1552.49 278.446H1626.59L1620.02 245.8H1578.32L1566.37 186.389H1596.37L1589.4 151.684H1559.4L1547.98 94.9199H1589.68L1583.12 62.2734H1509.02L1552.49 278.446ZM1734.78 278.446L1693.02 173.742C1703.67 165.507 1705.46 146.095 1701.15 124.625C1692.93 83.7436 1672.11 62.2734 1633.41 62.2734H1601.01L1644.48 278.446H1676.88L1658.54 187.271H1667.24L1702.38 278.446H1734.78ZM1670.18 125.802C1673.26 141.096 1670.96 149.037 1666.98 153.154C1663.01 157.272 1657.13 157.86 1652.63 157.86L1639.74 93.7434C1644.24 93.7434 1650.3 94.0375 1655.92 98.1551C1661.55 102.273 1667.11 110.508 1670.18 125.802Z" fill="white"/>
<path d="M528.399 204.33L527.413 199.428H522.413L523.399 204.33H528.399ZM534.769 241.976L529.785 240.045L529.741 240.233L529.714 240.426L534.769 241.976ZM518.493 247.564L515.456 250.862L515.553 250.948L515.654 251.03L518.493 247.564ZM510.672 234.035H505.672L505.696 234.152L505.725 234.268L510.672 234.035ZM485.063 106.684L479.99 106.197L480.014 106.44L480.063 106.684H485.063ZM484.966 98.7433L479.946 96.9837L479.942 97.0029L479.938 97.0222L484.966 98.7433ZM501.243 93.1552L504.262 89.8429L504.173 89.7644L504.081 89.689L501.243 93.1552ZM514.737 136.39H509.737L510.722 141.292H515.722L514.737 136.39ZM545.037 136.39L546.022 141.292H551.022L550.037 136.39H545.037ZM539.063 106.684H544.063L544.046 106.6L544.026 106.515L539.063 106.684ZM528.991 83.4495L524.836 85.461L524.87 85.513L524.905 85.5644L528.991 83.4495ZM512.838 67.2733L515.049 63.3518L515.049 63.3518L512.838 67.2733ZM462.738 67.2733L458.949 63.3518L458.949 63.3518L462.738 67.2733ZM453.391 83.4495L458.327 85.5644L458.342 85.513L458.355 85.461L453.391 83.4495ZM452.663 106.684L447.632 106.515L447.646 106.6L447.663 106.684H452.663ZM478.272 234.035H473.272L473.289 234.117L473.308 234.198L478.272 234.035ZM488.404 257.564L492.559 255.552L492.524 255.5L492.489 255.449L488.404 257.564ZM504.197 273.446L506.551 269.618L506.48 269.571L506.409 269.525L504.197 273.446ZM554.297 273.446L550.509 269.525L550.455 269.571L550.404 269.618L554.297 273.446ZM564.004 257.564L559.068 255.449L559.053 255.5L559.039 255.552L564.004 257.564ZM564.672 234.035L569.702 234.198L569.689 234.117L569.672 234.035H564.672ZM558.699 204.33H563.699L562.713 199.428H557.713L558.699 204.33ZM523.399 204.33L529.372 234.035H539.372L533.399 204.33H523.399ZM529.372 234.035C529.989 237.104 530.048 238.929 529.785 240.045L539.753 243.907C540.462 240.905 540.056 237.437 539.372 234.035H529.372ZM529.714 240.426C529.464 242.224 529.002 243.251 528.39 243.862C527.858 244.393 526.81 245.015 524.28 245.015L526.252 254.819C530.622 254.819 534.019 253.677 536.36 251.34C538.621 249.084 539.461 246.14 539.824 243.526L529.714 240.426ZM524.28 245.015C522.771 245.015 521.895 244.56 521.331 244.098L515.654 251.03C518.682 253.51 522.361 254.819 526.252 254.819L524.28 245.015ZM521.529 244.267C518.979 242.006 516.925 239.032 515.62 233.802L505.725 234.268C507.503 241.391 510.706 246.652 515.456 250.862L521.529 244.267ZM515.672 234.035L490.063 106.684H480.063L505.672 234.035H515.672ZM490.136 107.172C489.835 104.13 489.693 102.122 489.994 100.465L479.938 97.0222C479.386 100.07 479.708 103.357 479.99 106.197L490.136 107.172ZM489.987 100.503C490.295 98.891 490.776 97.6489 491.453 96.8467C492.023 96.171 492.798 95.7042 494.255 95.7042L492.284 85.9004C483.307 85.9004 480.767 92.6885 479.946 96.9837L489.987 100.503ZM494.255 95.7042C495.466 95.7042 496.47 95.8678 497.219 96.0912C497.988 96.3205 498.334 96.5642 498.404 96.6213L504.081 89.689C500.723 86.9389 496.279 85.9004 492.284 85.9004L494.255 95.7042ZM498.223 96.4675C501.013 98.9234 502.776 101.777 503.763 106.684H513.763C512.384 99.8268 509.492 94.4457 504.262 89.8429L498.223 96.4675ZM503.763 106.684L509.737 136.39H519.737L513.763 106.684H503.763ZM515.722 141.292H546.022L544.051 131.488H513.751L515.722 141.292ZM550.037 136.39L544.063 106.684H534.063L540.037 136.39H550.037ZM544.026 106.515C541.881 97.4342 538.226 88.8097 533.076 81.3345L524.905 85.5644C529.076 91.6184 532.215 98.876 534.1 106.853L544.026 106.515ZM533.146 81.4379C528.872 74.9627 522.864 68.3578 515.049 63.3518L510.626 71.1948C516.586 75.0123 521.344 80.1718 524.836 85.461L533.146 81.4379ZM515.049 63.3518C507.082 58.2483 497.257 55.0186 485.474 55.0186L487.445 64.8224C497.261 64.8224 504.819 67.475 510.627 71.1948L515.049 63.3518ZM485.474 55.0186C473.728 55.0186 464.888 58.228 458.949 63.3518L466.526 71.1948C470.814 67.4953 477.591 64.8224 487.445 64.8224L485.474 55.0186ZM458.949 63.3518C453.078 68.418 450.066 75.0819 448.427 81.4379L458.355 85.461C459.75 80.0526 462.172 74.952 466.527 71.1948L458.949 63.3518ZM448.455 81.3345C446.311 88.8097 446.125 97.4342 447.632 106.515L457.694 106.853C456.371 98.876 456.591 91.6184 458.327 85.5644L448.455 81.3345ZM447.663 106.684L473.272 234.035H483.272L457.663 106.684H447.663ZM473.308 234.198C475.51 243.565 479.162 252.194 484.318 259.679L492.489 255.449C488.325 249.405 485.183 242.152 483.237 233.872L473.308 234.198ZM484.248 259.576C488.504 266.022 494.147 272.347 501.986 277.368L506.409 269.525C500.473 265.722 496.069 260.87 492.559 255.552L484.248 259.576ZM501.844 277.274C510.072 282.848 520.246 285.701 531.862 285.701L529.89 275.897C519.906 275.897 512.215 273.456 506.551 269.618L501.844 277.274ZM531.862 285.701C543.517 285.701 552.225 282.829 558.191 277.274L550.404 269.618C546.262 273.475 539.835 275.897 529.89 275.897L531.862 285.701ZM558.086 277.368C563.831 272.411 567.275 266.137 568.968 259.576L559.039 255.552C557.698 260.756 554.99 265.658 550.509 269.525L558.086 277.368ZM568.94 259.679C571.086 252.194 571.267 243.565 569.702 234.198L559.642 233.872C561.026 242.152 560.801 249.405 559.068 255.449L568.94 259.679ZM569.672 234.035L563.699 204.33H553.699L559.672 234.035H569.672ZM557.713 199.428H527.413L529.384 209.232H559.684L557.713 199.428ZM563.332 127.86L567.877 126.53L567.841 126.457L567.803 126.384L563.332 127.86ZM585.975 161.389L589.633 158.722L589.633 158.722L585.975 161.389ZM612.348 191.095L615.962 188.376L615.921 188.329L615.879 188.284L612.348 191.095ZM623.35 204.036L627.252 201.668L627.142 201.523L627.023 201.385L623.35 204.036ZM613.166 239.917L617.69 238.545L617.63 238.425L617.565 238.307L613.166 239.917ZM605.439 214.918H610.439L609.356 209.532L603.988 210.038L605.439 214.918ZM574.23 217.859L572.779 212.979L568.333 213.398L569.23 217.859H574.23ZM591.083 261.387L587.177 263.75L587.177 263.75L591.083 261.387ZM666.375 264.329L661.681 261.582L661.681 261.582L666.375 264.329ZM624.32 159.625L627.911 156.88L627.907 156.875L624.32 159.625ZM601.715 133.743L597.863 136.175L597.863 136.175L601.715 133.743ZM595.725 89.0376L594.74 84.1357H594.65L594.562 84.1389L595.725 89.0376ZM608.236 99.0375L612.668 97.4873L612.649 97.4526L612.63 97.4181L608.236 99.0375ZM614.895 120.214H609.895L610.978 125.6L616.346 125.094L614.895 120.214ZM646.103 117.272L647.554 122.153L652 121.734L651.103 117.272H646.103ZM630.315 79.0378L634.283 76.7593L634.267 76.7365L634.25 76.7138L630.315 79.0378ZM589.27 59.9205L588.208 55.0192L588.197 55.0194L588.187 55.0196L589.27 59.9205ZM559.882 76.3908L555.247 73.5299L555.232 73.5588L555.217 73.5879L559.882 76.3908ZM552.143 110.508C553.424 116.876 555.681 123.257 558.861 129.337L567.803 126.384C565.137 121.287 563.228 115.904 562.143 110.508H552.143ZM558.788 129.191C564.661 141.207 572.631 152.83 582.316 164.057L589.633 158.722C580.542 148.184 573.217 137.454 567.877 126.53L558.788 129.191ZM582.316 164.057C591.747 174.988 600.7 185.035 608.817 193.906L615.879 188.284C607.848 179.507 598.979 169.555 589.633 158.722L582.316 164.057ZM608.735 193.814C612.618 198.221 615.969 202.358 619.678 206.686L627.023 201.385C623.676 197.478 619.853 192.791 615.962 188.376L608.735 193.814ZM619.449 206.404C625.946 214.909 630.397 222.17 631.541 227.859H641.541C639.846 219.43 633.785 210.22 627.252 201.668L619.449 206.404ZM631.541 227.859C632.877 234.5 633.008 239.573 632.052 242.808C631.591 244.366 630.931 245.318 630.218 245.882C629.544 246.417 628.607 246.78 627.146 246.78L629.117 256.584C632.456 256.584 635.318 255.697 637.555 253.924C639.753 252.182 641.116 249.77 641.906 247.1C643.449 241.879 642.985 235.041 641.541 227.859H631.541ZM627.146 246.78C625.021 246.78 623.573 246.122 622.296 245.044C620.822 243.8 619.273 241.721 617.69 238.545L608.642 241.29C610.578 245.172 613.062 248.976 616.466 251.849C620.067 254.889 624.343 256.584 629.117 256.584L627.146 246.78ZM617.565 238.307C614.307 232.446 612.296 224.156 610.439 214.918H600.439C602.248 223.915 604.504 233.859 608.767 241.528L617.565 238.307ZM603.988 210.038L572.779 212.979L575.681 222.739L606.89 219.798L603.988 210.038ZM569.23 217.859C572.499 234.116 577.316 250.81 587.177 263.75L594.989 259.025C586.919 248.436 582.467 233.954 579.23 217.859H569.23ZM587.177 263.75C592.207 270.349 598.552 275.926 606.61 279.81C614.625 283.673 624.001 285.701 634.973 285.701L633.001 275.897C623.273 275.897 615.68 274.101 609.66 271.2C603.682 268.319 598.926 264.19 594.989 259.025L587.177 263.75ZM634.973 285.701C654.144 285.701 665.449 278.569 671.069 267.075L661.681 261.582C657.522 270.088 649.229 275.897 633.001 275.897L634.973 285.701ZM671.069 267.075C676.543 255.879 676.019 241.177 673.045 226.388H663.045C665.867 240.422 665.985 252.779 661.681 261.582L671.069 267.075ZM673.045 226.388C670.464 213.55 663.799 201.579 655.641 190.326L647.646 194.804C655.266 205.315 660.896 215.698 663.045 226.388H673.045ZM655.641 190.326C647.542 179.153 637.594 167.757 627.911 156.88L620.729 162.369C630.422 173.257 639.969 184.213 647.646 194.804L655.641 190.326ZM627.907 156.875C619.603 147.568 611.854 139.33 605.567 131.311L597.863 136.175C604.489 144.626 612.769 153.447 620.733 162.374L627.907 156.875ZM605.567 131.311C599.222 123.217 595.151 116.513 593.943 110.508H583.943C585.692 119.208 591.296 127.798 597.863 136.175L605.567 131.311ZM593.943 110.508C592.707 104.362 592.498 99.928 593.216 97.1557C593.556 95.8408 594.055 95.1023 594.553 94.681C595.015 94.2891 595.698 93.9784 596.889 93.9364L594.562 84.1389C591.582 84.2439 589.014 85.1097 587.026 86.7949C585.072 88.4508 583.92 90.6902 583.29 93.1253C582.065 97.8528 582.636 104.006 583.943 110.508H593.943ZM596.711 93.9395C598.352 93.9395 600.755 95.1239 603.843 100.657L612.63 97.4181C609.152 91.1865 603.299 84.1357 594.74 84.1357L596.711 93.9395ZM603.805 100.588C606.689 105.919 608.468 113.117 609.895 120.214H619.895C618.483 113.193 616.467 104.509 612.668 97.4873L603.805 100.588ZM616.346 125.094L647.554 122.153L644.652 112.392L613.444 115.333L616.346 125.094ZM651.103 117.272C648.609 104.868 643.696 89.5378 634.283 76.7593L626.346 81.3164C634.265 92.0668 638.748 105.56 641.103 117.272H651.103ZM634.25 76.7138C629.425 70.284 623.254 64.7038 615.467 60.805C607.695 56.9134 598.642 54.8614 588.208 55.0192L590.333 64.8218C599.339 64.6855 606.505 66.4569 612.243 69.33C617.967 72.1957 622.597 76.3212 626.38 81.3618L634.25 76.7138ZM588.187 55.0196C571.245 55.3465 560.863 62.9743 555.247 73.5299L564.518 79.2517C568.916 70.9841 576.814 65.0827 590.354 64.8214L588.187 55.0196ZM555.217 73.5879C549.713 84.3838 549.653 98.1264 552.143 110.508H562.143C559.901 99.3603 560.155 87.8092 564.548 79.1937L555.217 73.5879ZM752.289 139.919L753.275 144.821H758.275L757.289 139.919H752.289ZM745.606 106.684H750.606L750.589 106.6L750.569 106.515L745.606 106.684ZM735.534 83.4495L731.379 85.461L731.413 85.513L731.448 85.5644L735.534 83.4495ZM719.381 67.2733L721.592 63.3518L721.592 63.3518L719.381 67.2733ZM669.281 67.2733L665.492 63.3518L665.492 63.3518L669.281 67.2733ZM659.934 83.4495L664.87 85.5644L664.884 85.513L664.898 85.461L659.934 83.4495ZM659.206 106.684L654.175 106.515L654.189 106.6L654.206 106.684H659.206ZM684.815 234.035L689.845 234.198L689.832 234.117L689.815 234.035H684.815ZM693.147 257.564L688.85 259.35L688.86 259.367L688.87 259.385L693.147 257.564ZM707.74 273.446L710.325 269.782L710.255 269.73L710.184 269.68L707.74 273.446ZM754.976 268.152L759.32 266.445L754.613 258.329L750.456 265.09L754.976 268.152ZM760.946 278.446L756.602 280.153L758.455 283.348H761.931L760.946 278.446ZM780.146 278.446L781.131 283.348H786.131L785.146 278.446H780.146ZM758.499 170.801H763.499L762.514 165.899H757.514L758.499 170.801ZM713.199 170.801L712.214 165.899H707.214L708.199 170.801H713.199ZM718.581 197.565H713.581L714.567 202.467H719.567L718.581 197.565ZM731.481 197.565H736.481L735.496 192.663H730.496L731.481 197.565ZM739.744 244.623L734.76 242.692L734.683 243.018L734.659 243.36L739.744 244.623ZM724.968 250.211L721.931 253.509L722.029 253.595L722.129 253.677L724.968 250.211ZM691.209 98.7433L696.237 100.465L696.262 100.326L696.278 100.185L691.209 98.7433ZM706.285 93.1552L709.496 90.0171L709.316 89.8463L709.124 89.689L706.285 93.1552ZM719.889 139.919H714.889L715.875 144.821H720.875L719.889 139.919ZM757.289 139.919L750.606 106.684H740.606L747.289 139.919H757.289ZM750.569 106.515C748.424 97.4342 744.769 88.8097 739.619 81.3345L731.448 85.5644C735.619 91.6184 738.758 98.876 740.643 106.853L750.569 106.515ZM739.689 81.4379C735.415 74.9627 729.407 68.3578 721.592 63.3518L717.169 71.1948C723.129 75.0123 727.887 80.1718 731.379 85.461L739.689 81.4379ZM721.592 63.3518C713.625 58.2483 703.8 55.0186 692.017 55.0186L693.988 64.8224C703.804 64.8224 711.362 67.475 717.169 71.1948L721.592 63.3518ZM692.017 55.0186C680.271 55.0186 671.43 58.228 665.492 63.3518L673.069 71.1948C677.357 67.4953 684.134 64.8224 693.988 64.8224L692.017 55.0186ZM665.492 63.3518C659.621 68.418 656.609 75.0819 654.97 81.4379L664.898 85.461C666.293 80.0526 668.715 74.952 673.069 71.1948L665.492 63.3518ZM654.998 81.3345C652.854 88.8097 652.668 97.4342 654.175 106.515L664.237 106.853C662.914 98.876 663.134 91.6184 664.87 85.5644L654.998 81.3345ZM654.206 106.684L679.815 234.035H689.815L664.206 106.684H654.206ZM679.785 233.872C681.345 243.211 684.341 251.839 688.85 259.35L697.444 255.778C693.831 249.76 691.233 242.506 689.845 234.198L679.785 233.872ZM688.87 259.385C692.802 265.839 698.106 272.166 705.297 277.212L710.184 269.68C704.801 265.903 700.657 261.053 697.423 255.744L688.87 259.385ZM705.155 277.11C712.807 282.783 721.869 285.701 733.305 285.701L731.333 275.897C721.768 275.897 715.367 273.52 710.325 269.782L705.155 277.11ZM733.305 285.701C745.654 285.701 754.431 279.451 759.496 271.214L750.456 265.09C746.478 271.559 739.984 275.897 731.333 275.897L733.305 285.701ZM750.632 269.859L756.602 280.153L765.29 276.739L759.32 266.445L750.632 269.859ZM761.931 283.348H781.131L779.16 273.544H759.96L761.931 283.348ZM785.146 278.446L763.499 170.801H753.499L775.146 278.446H785.146ZM757.514 165.899H712.214L714.185 175.703H759.485L757.514 165.899ZM708.199 170.801L713.581 197.565H723.581L718.199 170.801H708.199ZM719.567 202.467H732.467L730.496 192.663H717.596L719.567 202.467ZM726.481 197.565L734.347 236.682H744.347L736.481 197.565H726.481ZM734.347 236.682C734.964 239.751 735.024 241.576 734.76 242.692L744.728 246.554C745.437 243.552 745.031 240.084 744.347 236.682H734.347ZM734.659 243.36C734.539 245.056 734.12 246.102 733.603 246.696C733.179 247.182 732.448 247.662 730.755 247.662L732.727 257.466C736.734 257.466 739.848 256.182 741.923 253.8C743.904 251.526 744.637 248.602 744.829 245.886L734.659 243.36ZM730.755 247.662C729.246 247.662 728.37 247.207 727.806 246.745L722.129 253.677C725.157 256.157 728.836 257.466 732.727 257.466L730.755 247.662ZM728.005 246.914C725.631 244.81 723.815 241.989 722.747 236.682H712.747C714.164 243.727 717.004 249.142 721.931 253.509L728.005 246.914ZM722.747 236.682L696.606 106.684H686.606L712.747 236.682H722.747ZM696.606 106.684C696.071 104.025 695.951 102.039 696.237 100.465L686.181 97.0222C685.613 100.153 685.958 103.462 686.606 106.684H696.606ZM696.278 100.185C696.443 98.7212 696.856 97.5522 697.468 96.8052C697.982 96.1769 698.731 95.7042 700.198 95.7042L698.227 85.9004C693.994 85.9004 690.957 87.4865 689.002 89.8729C687.145 92.1405 686.407 94.942 686.14 97.3018L696.278 100.185ZM700.198 95.7042C701.884 95.7042 703.013 96.2661 703.447 96.6213L709.124 89.689C705.966 87.1032 701.94 85.9004 698.227 85.9004L700.198 95.7042ZM703.075 96.2933C705.57 98.6663 707.17 101.53 708.206 106.684H718.206C716.877 100.074 714.421 94.7028 709.496 90.0171L703.075 96.2933ZM708.206 106.684L714.889 139.919H724.889L718.206 106.684H708.206ZM720.875 144.821H753.275L751.304 135.017H718.904L720.875 144.821ZM853.712 106.684H858.712L858.695 106.6L858.675 106.515L853.712 106.684ZM843.639 83.4495L839.484 85.461L839.518 85.513L839.554 85.5644L843.639 83.4495ZM827.486 67.2733L829.698 63.3518L829.698 63.3518L827.486 67.2733ZM777.386 67.2733L773.598 63.3518L773.598 63.3518L777.386 67.2733ZM768.039 83.4495L772.975 85.5644L772.99 85.513L773.003 85.461L768.039 83.4495ZM767.312 106.684L762.281 106.515L762.295 106.6L762.312 106.684H767.312ZM792.921 234.035H787.921L787.937 234.117L787.956 234.198L792.921 234.035ZM803.052 257.564L807.207 255.552L807.173 255.5L807.137 255.449L803.052 257.564ZM818.846 273.446L821.2 269.618L821.129 269.571L821.057 269.525L818.846 273.446ZM868.946 273.446L865.157 269.525L865.104 269.571L865.053 269.618L868.946 273.446ZM878.652 257.564L873.716 255.449L873.701 255.5L873.688 255.552L878.652 257.564ZM879.321 234.035L884.351 234.198L884.337 234.117L884.321 234.035H879.321ZM847.317 241.976L842.333 240.045L842.257 240.371L842.232 240.713L847.317 241.976ZM832.541 247.564L829.505 250.862L829.602 250.948L829.703 251.03L832.541 247.564ZM799.315 98.7433L804.342 100.465L804.368 100.326L804.383 100.185L799.315 98.7433ZM814.391 93.1552L817.601 90.0171L817.421 89.8463L817.229 89.689L814.391 93.1552ZM858.675 106.515C856.529 97.4342 852.874 88.8097 847.725 81.3345L839.554 85.5644C843.725 91.6184 846.864 98.876 848.748 106.853L858.675 106.515ZM847.794 81.4379C843.52 74.9627 837.513 68.3578 829.698 63.3518L825.275 71.1948C831.234 75.0123 835.993 80.1718 839.484 85.461L847.794 81.4379ZM829.698 63.3518C821.731 58.2483 811.906 55.0186 800.122 55.0186L802.093 64.8224C811.91 64.8224 819.468 67.475 825.275 71.1948L829.698 63.3518ZM800.122 55.0186C788.377 55.0186 779.536 58.228 773.598 63.3518L781.175 71.1948C785.462 67.4953 792.239 64.8224 802.093 64.8224L800.122 55.0186ZM773.598 63.3518C767.726 68.418 764.714 75.0819 763.075 81.4379L773.003 85.461C774.398 80.0526 776.821 74.952 781.175 71.1948L773.598 63.3518ZM763.103 81.3345C760.96 88.8097 760.774 97.4342 762.281 106.515L772.343 106.853C771.019 98.876 771.239 91.6184 772.975 85.5644L763.103 81.3345ZM762.312 106.684L787.921 234.035H797.921L772.312 106.684H762.312ZM787.956 234.198C790.158 243.565 793.81 252.194 798.967 259.679L807.137 255.449C802.973 249.405 799.831 242.152 797.885 233.872L787.956 234.198ZM798.897 259.576C803.152 266.022 808.796 272.347 816.634 277.368L821.057 269.525C815.121 265.722 810.717 260.87 807.207 255.552L798.897 259.576ZM816.492 277.274C824.72 282.848 834.894 285.701 846.51 285.701L844.539 275.897C834.555 275.897 826.864 273.456 821.2 269.618L816.492 277.274ZM846.51 285.701C858.166 285.701 866.873 282.829 872.839 277.274L865.053 269.618C860.911 273.475 854.483 275.897 844.539 275.897L846.51 285.701ZM872.734 277.368C878.479 272.411 881.924 266.137 883.616 259.576L873.688 255.552C872.346 260.756 869.638 265.658 865.157 269.525L872.734 277.368ZM883.588 259.679C885.734 252.194 885.916 243.565 884.351 234.198L874.291 233.872C875.674 242.152 875.449 249.405 873.716 255.449L883.588 259.679ZM884.321 234.035L858.712 106.684H848.712L874.321 234.035H884.321ZM841.921 234.035C842.538 237.104 842.597 238.929 842.333 240.045L852.301 243.907C853.01 240.905 852.605 237.437 851.921 234.035H841.921ZM842.232 240.713C842.112 242.409 841.694 243.455 841.176 244.049C840.753 244.535 840.021 245.015 838.329 245.015L840.3 254.819C844.307 254.819 847.421 253.535 849.496 251.153C851.477 248.879 852.21 245.955 852.403 243.239L842.232 240.713ZM838.329 245.015C836.819 245.015 835.943 244.56 835.38 244.098L829.703 251.03C832.731 253.51 836.409 254.819 840.3 254.819L838.329 245.015ZM835.578 244.267C833.204 242.163 831.388 239.342 830.321 234.035H820.321C821.737 241.08 824.577 246.495 829.505 250.862L835.578 244.267ZM830.321 234.035L804.712 106.684H794.712L820.321 234.035H830.321ZM804.712 106.684C804.177 104.025 804.057 102.039 804.342 100.465L794.287 97.0222C793.719 100.153 794.063 103.462 794.712 106.684H804.712ZM804.383 100.185C804.549 98.7212 804.961 97.5522 805.573 96.8052C806.087 96.1769 806.837 95.7042 808.304 95.7042L806.332 85.9004C802.099 85.9004 799.062 87.4865 797.108 89.8729C795.251 92.1405 794.512 94.942 794.246 97.3018L804.383 100.185ZM808.304 95.7042C809.99 95.7042 811.119 96.2661 811.552 96.6213L817.229 89.689C814.072 87.1032 810.046 85.9004 806.332 85.9004L808.304 95.7042ZM811.181 96.2933C813.675 98.6663 815.275 101.53 816.312 106.684H826.312C824.982 100.074 822.526 94.7028 817.601 90.0171L811.181 96.2933ZM816.312 106.684L841.921 234.035H851.921L826.312 106.684H816.312ZM1023.79 278.446L1024.78 283.348H1029.09L1028.89 279.17L1023.79 278.446ZM1017.17 142.566L1022.26 143.29L1022.26 143.242L1022.26 143.193L1017.17 142.566ZM1016.54 133.449L1015.55 128.547H1011.16L1011.45 132.821L1016.54 133.449ZM1018.34 133.449H1023.34L1022.35 128.547H1017.35L1018.34 133.449ZM1047.49 278.446H1042.49L1043.48 283.348H1048.48L1047.49 278.446ZM1077.49 278.446L1078.48 283.348H1083.48L1082.49 278.446H1077.49ZM1034.02 62.2734H1039.02L1038.04 57.3715H1033.04L1034.02 62.2734ZM994.425 62.2734L993.439 57.3715H989.301L989.329 61.3562L994.425 62.2734ZM995.097 161.095L990.001 160.178L990.002 160.324L990.012 160.472L995.097 161.095ZM995.903 172.566L996.889 177.467H1001.29L1000.99 173.189L995.903 172.566ZM995.303 172.566L990.469 173.189L991.889 177.467H996.289L995.303 172.566ZM991.497 161.095L996.331 160.472L996.282 160.324L996.224 160.178L991.497 161.095ZM952.425 62.2734L957.152 61.3562L955.576 57.3715H951.439L952.425 62.2734ZM912.825 62.2734L911.839 57.3715H906.839L907.825 62.2734H912.825ZM956.295 278.446H951.295L952.281 283.348H957.281L956.295 278.446ZM986.295 278.446L987.281 283.348H992.281L991.295 278.446H986.295ZM957.137 133.449L956.152 128.547H951.152L952.137 133.449H957.137ZM958.937 133.449L963.77 132.821L962.348 128.547H957.952L958.937 133.449ZM961.971 142.566L957.138 143.193L957.154 143.242L957.171 143.29L961.971 142.566ZM1009.99 278.446L1005.2 279.17L1006.67 283.348H1010.98L1009.99 278.446ZM1028.89 279.17L1022.26 143.29L1012.08 141.842L1018.7 277.722L1028.89 279.17ZM1022.26 143.193L1021.62 134.076L1011.45 132.821L1012.09 141.939L1022.26 143.193ZM1017.52 138.35H1019.32L1017.35 128.547H1015.55L1017.52 138.35ZM1013.34 133.449L1042.49 278.446H1052.49L1023.34 133.449H1013.34ZM1048.48 283.348H1078.48L1076.51 273.544H1046.51L1048.48 283.348ZM1082.49 278.446L1039.02 62.2734H1029.02L1072.49 278.446H1082.49ZM1033.04 57.3715H993.439L995.41 67.1753H1035.01L1033.04 57.3715ZM989.329 61.3562L990.001 160.178L1000.19 162.012L999.521 63.1906L989.329 61.3562ZM990.012 160.472L990.819 171.942L1000.99 173.189L1000.18 161.719L990.012 160.472ZM994.918 167.664H994.318L996.289 177.467H996.889L994.918 167.664ZM1000.14 171.942L996.331 160.472L986.663 161.719L990.469 173.189L1000.14 171.942ZM996.224 160.178L957.152 61.3562L947.697 63.1906L986.77 162.012L996.224 160.178ZM951.439 57.3715H911.839L913.81 67.1753H953.41L951.439 57.3715ZM907.825 62.2734L951.295 278.446H961.295L917.825 62.2734H907.825ZM957.281 283.348H987.281L985.309 273.544H955.309L957.281 283.348ZM991.295 278.446L962.137 133.449H952.137L981.295 278.446H991.295ZM958.123 138.35H959.923L957.952 128.547H956.152L958.123 138.35ZM954.105 134.076L957.138 143.193L966.804 141.939L963.77 132.821L954.105 134.076ZM957.171 143.29L1005.2 279.17L1014.79 277.722L966.77 141.842L957.171 143.29ZM1010.98 283.348H1024.78L1022.81 273.544H1009.01L1010.98 283.348ZM1124.11 278.446L1125.09 283.348H1129.47L1129.19 279.094L1124.11 278.446ZM1121.24 234.329L1120.25 229.427H1115.87L1116.15 233.681L1121.24 234.329ZM1152.44 234.329L1157.26 233.681L1155.83 229.427H1151.45L1152.44 234.329ZM1167.31 278.446L1162.48 279.094L1163.92 283.348H1168.29L1167.31 278.446ZM1198.81 278.446L1199.79 283.348H1205.6L1203.6 277.714L1198.81 278.446ZM1122.04 62.2734L1126.83 61.5414L1125.35 57.3715H1121.05L1122.04 62.2734ZM1082.44 62.2734L1081.45 57.3715H1077.15L1077.35 61.5414L1082.44 62.2734ZM1092.61 278.446L1087.52 277.714L1087.78 283.348H1093.59L1092.61 278.446ZM1141.19 200.8L1142.18 205.702H1147.89L1146.02 200.151L1141.19 200.8ZM1118.99 200.8L1113.91 200.151L1114.27 205.702H1119.98L1118.99 200.8ZM1114.57 132.566L1109.48 131.802L1109.48 131.859L1109.49 131.917L1114.57 132.566ZM1114.35 126.978L1113.36 122.076H1109.09L1109.26 126.214L1114.35 126.978ZM1116.15 126.978L1120.93 126.214L1119.44 122.076H1115.16L1116.15 126.978ZM1118.17 132.566L1123 131.917L1122.98 131.859L1122.96 131.802L1118.17 132.566ZM1129.19 279.094L1126.32 234.977L1116.15 233.681L1119.02 277.798L1129.19 279.094ZM1122.22 239.231H1153.42L1151.45 229.427H1120.25L1122.22 239.231ZM1147.61 234.977L1162.48 279.094L1172.13 277.798L1157.26 233.681L1147.61 234.977ZM1168.29 283.348H1199.79L1197.82 273.544H1166.32L1168.29 283.348ZM1203.6 277.714L1126.83 61.5414L1117.24 63.0054L1194.01 279.178L1203.6 277.714ZM1121.05 57.3715H1081.45L1083.42 67.1753H1123.02L1121.05 57.3715ZM1077.35 61.5414L1087.52 277.714L1097.7 279.178L1087.53 63.0054L1077.35 61.5414ZM1093.59 283.348H1125.09L1123.12 273.544H1091.62L1093.59 283.348ZM1140.21 195.898H1118.01L1119.98 205.702H1142.18L1140.21 195.898ZM1124.08 201.45L1119.66 133.215L1109.49 131.917L1113.91 200.151L1124.08 201.45ZM1119.66 133.331L1119.44 127.743L1109.26 126.214L1109.48 131.802L1119.66 133.331ZM1115.33 131.88H1117.13L1115.16 122.076H1113.36L1115.33 131.88ZM1111.36 127.743L1113.39 133.331L1122.96 131.802L1120.93 126.214L1111.36 127.743ZM1113.35 133.215L1136.37 201.45L1146.02 200.151L1123 131.917L1113.35 133.215ZM1279.51 278.446L1274.95 279.742L1276.69 283.348H1280.5L1279.51 278.446ZM1308.31 278.446L1309.3 283.348H1314.3L1313.31 278.446H1308.31ZM1264.84 62.2734H1269.84L1268.86 57.3715H1263.86L1264.84 62.2734ZM1235.14 62.2734L1234.16 57.3715H1229.16L1230.14 62.2734H1235.14ZM1259.81 184.918L1260.79 189.82H1265.79L1264.81 184.918H1259.81ZM1258.01 184.918L1253.43 186.173L1255.14 189.82H1258.99L1258.01 184.918ZM1253.3 174.918L1257.88 173.664L1257.87 173.643L1257.86 173.622L1253.3 174.918ZM1199.14 62.2734L1203.71 60.9774L1201.97 57.3715H1198.16L1199.14 62.2734ZM1170.34 62.2734L1169.36 57.3715H1164.36L1165.34 62.2734H1170.34ZM1213.81 278.446H1208.81L1209.8 283.348H1214.8L1213.81 278.446ZM1243.51 278.446L1244.5 283.348H1249.5L1248.51 278.446H1243.51ZM1218.85 155.801L1217.87 150.899H1212.87L1213.85 155.801H1218.85ZM1220.65 155.801L1225.23 154.547L1223.51 150.899H1219.67L1220.65 155.801ZM1225.36 165.801L1220.78 167.055L1220.79 167.076L1220.8 167.097L1225.36 165.801ZM1280.5 283.348H1309.3L1307.33 273.544H1278.53L1280.5 283.348ZM1313.31 278.446L1269.84 62.2734H1259.84L1303.31 278.446H1313.31ZM1263.86 57.3715H1234.16L1236.13 67.1753H1265.83L1263.86 57.3715ZM1230.14 62.2734L1254.81 184.918H1264.81L1240.14 62.2734H1230.14ZM1258.82 180.016H1257.02L1258.99 189.82H1260.79L1258.82 180.016ZM1262.59 183.664L1257.88 173.664L1248.71 176.173L1253.43 186.173L1262.59 183.664ZM1257.86 173.622L1203.71 60.9774L1194.58 63.5694L1248.73 176.214L1257.86 173.622ZM1198.16 57.3715H1169.36L1171.33 67.1753H1200.13L1198.16 57.3715ZM1165.34 62.2734L1208.81 278.446H1218.81L1175.34 62.2734H1165.34ZM1214.8 283.348H1244.5L1242.53 273.544H1212.83L1214.8 283.348ZM1248.51 278.446L1223.85 155.801H1213.85L1238.51 278.446H1248.51ZM1219.84 160.703H1221.64L1219.67 150.899H1217.87L1219.84 160.703ZM1216.07 157.055L1220.78 167.055L1229.94 164.547L1225.23 154.547L1216.07 157.055ZM1220.8 167.097L1274.95 279.742L1284.08 277.15L1229.92 164.505L1220.8 167.097ZM1354.67 278.446L1355.66 283.348H1360.04L1359.76 279.094L1354.67 278.446ZM1351.8 234.329L1350.82 229.427H1346.44L1346.72 233.681L1351.8 234.329ZM1383 234.329L1387.83 233.681L1386.39 229.427H1382.02L1383 234.329ZM1397.87 278.446L1393.05 279.094L1394.48 283.348H1398.86L1397.87 278.446ZM1429.37 278.446L1430.36 283.348H1436.17L1434.17 277.714L1429.37 278.446ZM1352.6 62.2734L1357.4 61.5414L1355.92 57.3715H1351.62L1352.6 62.2734ZM1313 62.2734L1312.02 57.3715H1307.72L1307.91 61.5414L1313 62.2734ZM1323.17 278.446L1318.08 277.714L1318.35 283.348H1324.16L1323.17 278.446ZM1371.76 200.8L1372.75 205.702H1378.46L1376.59 200.151L1371.76 200.8ZM1349.56 200.8L1344.47 200.151L1344.83 205.702H1350.55L1349.56 200.8ZM1345.14 132.566L1340.05 131.802L1340.05 131.859L1340.05 131.917L1345.14 132.566ZM1344.92 126.978L1343.93 122.076H1339.66L1339.82 126.214L1344.92 126.978ZM1346.72 126.978L1351.5 126.214L1350 122.076H1345.73L1346.72 126.978ZM1348.74 132.566L1353.56 131.917L1353.54 131.859L1353.52 131.802L1348.74 132.566ZM1359.76 279.094L1356.89 234.977L1346.72 233.681L1349.59 277.798L1359.76 279.094ZM1352.79 239.231H1383.99L1382.02 229.427H1350.82L1352.79 239.231ZM1378.18 234.977L1393.05 279.094L1402.7 277.798L1387.83 233.681L1378.18 234.977ZM1398.86 283.348H1430.36L1428.39 273.544H1396.89L1398.86 283.348ZM1434.17 277.714L1357.4 61.5414L1347.81 63.0054L1424.58 279.178L1434.17 277.714ZM1351.62 57.3715H1312.02L1313.99 67.1753H1353.59L1351.62 57.3715ZM1307.91 61.5414L1318.08 277.714L1328.26 279.178L1318.09 63.0054L1307.91 61.5414ZM1324.16 283.348H1355.66L1353.69 273.544H1322.19L1324.16 283.348ZM1370.77 195.898H1348.57L1350.55 205.702H1372.75L1370.77 195.898ZM1354.65 201.45L1350.23 133.215L1340.05 131.917L1344.47 200.151L1354.65 201.45ZM1350.23 133.331L1350.01 127.743L1339.82 126.214L1340.05 131.802L1350.23 133.331ZM1345.9 131.88H1347.7L1345.73 122.076H1343.93L1345.9 131.88ZM1341.93 127.743L1343.95 133.331L1353.52 131.802L1351.5 126.214L1341.93 127.743ZM1343.91 133.215L1366.93 201.45L1376.59 200.151L1353.56 131.917L1343.91 133.215ZM1500.82 139.919L1501.81 144.821H1506.81L1505.82 139.919H1500.82ZM1494.14 106.684H1499.14L1499.12 106.6L1499.1 106.515L1494.14 106.684ZM1484.07 83.4495L1479.91 85.461L1479.95 85.513L1479.98 85.5644L1484.07 83.4495ZM1467.92 67.2733L1470.13 63.3518L1470.13 63.3518L1467.92 67.2733ZM1417.82 67.2733L1414.03 63.3518L1414.03 63.3518L1417.82 67.2733ZM1408.47 83.4495L1413.4 85.5644L1413.42 85.513L1413.43 85.461L1408.47 83.4495ZM1407.74 106.684L1402.71 106.515L1402.72 106.6L1402.74 106.684H1407.74ZM1433.35 234.035L1438.38 234.198L1438.37 234.117L1438.35 234.035H1433.35ZM1441.68 257.564L1437.38 259.35L1437.39 259.367L1437.41 259.385L1441.68 257.564ZM1456.28 273.446L1458.86 269.782L1458.79 269.73L1458.72 269.68L1456.28 273.446ZM1503.51 268.152L1507.85 266.445L1503.15 258.329L1498.99 265.09L1503.51 268.152ZM1509.48 278.446L1505.14 280.153L1506.99 283.348H1510.47L1509.48 278.446ZM1528.68 278.446L1529.67 283.348H1534.67L1533.68 278.446H1528.68ZM1507.03 170.801H1512.03L1511.05 165.899H1506.05L1507.03 170.801ZM1461.73 170.801L1460.75 165.899H1455.75L1456.73 170.801H1461.73ZM1467.12 197.565H1462.12L1463.1 202.467H1468.1L1467.12 197.565ZM1480.02 197.565H1485.02L1484.03 192.663H1479.03L1480.02 197.565ZM1488.28 244.623L1483.3 242.692L1483.22 243.018L1483.19 243.36L1488.28 244.623ZM1473.5 250.211L1470.47 253.509L1470.56 253.595L1470.66 253.677L1473.5 250.211ZM1439.74 98.7433L1444.77 100.465L1444.8 100.326L1444.81 100.185L1439.74 98.7433ZM1454.82 93.1552L1458.03 90.0171L1457.85 89.8463L1457.66 89.689L1454.82 93.1552ZM1468.42 139.919H1463.42L1464.41 144.821H1469.41L1468.42 139.919ZM1505.82 139.919L1499.14 106.684H1489.14L1495.82 139.919H1505.82ZM1499.1 106.515C1496.96 97.4342 1493.3 88.8097 1488.15 81.3345L1479.98 85.5644C1484.15 91.6184 1487.29 98.876 1489.18 106.853L1499.1 106.515ZM1488.22 81.4379C1483.95 74.9627 1477.94 68.3578 1470.13 63.3518L1465.7 71.1948C1471.66 75.0123 1476.42 80.1718 1479.91 85.461L1488.22 81.4379ZM1470.13 63.3518C1462.16 58.2483 1452.34 55.0186 1440.55 55.0186L1442.52 64.8224C1452.34 64.8224 1459.9 67.475 1465.7 71.1948L1470.13 63.3518ZM1440.55 55.0186C1428.81 55.0186 1419.97 58.228 1414.03 63.3518L1421.6 71.1948C1425.89 67.4953 1432.67 64.8224 1442.52 64.8224L1440.55 55.0186ZM1414.03 63.3518C1408.16 68.418 1405.14 75.0819 1403.5 81.4379L1413.43 85.461C1414.83 80.0526 1417.25 74.952 1421.6 71.1948L1414.03 63.3518ZM1403.53 81.3345C1401.39 88.8097 1401.2 97.4342 1402.71 106.515L1412.77 106.853C1411.45 98.876 1411.67 91.6184 1413.4 85.5644L1403.53 81.3345ZM1402.74 106.684L1428.35 234.035H1438.35L1412.74 106.684H1402.74ZM1428.32 233.872C1429.88 243.211 1432.88 251.839 1437.38 259.35L1445.98 255.778C1442.37 249.76 1439.77 242.506 1438.38 234.198L1428.32 233.872ZM1437.41 259.385C1441.34 265.839 1446.64 272.166 1453.83 277.212L1458.72 269.68C1453.34 265.903 1449.19 261.053 1445.96 255.744L1437.41 259.385ZM1453.69 277.11C1461.34 282.783 1470.4 285.701 1481.84 285.701L1479.87 275.897C1470.3 275.897 1463.9 273.52 1458.86 269.782L1453.69 277.11ZM1481.84 285.701C1494.19 285.701 1502.97 279.451 1508.03 271.214L1498.99 265.09C1495.01 271.559 1488.52 275.897 1479.87 275.897L1481.84 285.701ZM1499.17 269.859L1505.14 280.153L1513.82 276.739L1507.85 266.445L1499.17 269.859ZM1510.47 283.348H1529.67L1527.7 273.544H1508.5L1510.47 283.348ZM1533.68 278.446L1512.03 170.801H1502.03L1523.68 278.446H1533.68ZM1506.05 165.899H1460.75L1462.72 175.703H1508.02L1506.05 165.899ZM1456.73 170.801L1462.12 197.565H1472.12L1466.73 170.801H1456.73ZM1468.1 202.467H1481L1479.03 192.663H1466.13L1468.1 202.467ZM1475.02 197.565L1482.88 236.682H1492.88L1485.02 197.565H1475.02ZM1482.88 236.682C1483.5 239.751 1483.56 241.576 1483.3 242.692L1493.26 246.554C1493.97 243.552 1493.57 240.084 1492.88 236.682H1482.88ZM1483.19 243.36C1483.07 245.056 1482.66 246.102 1482.14 246.696C1481.71 247.182 1480.98 247.662 1479.29 247.662L1481.26 257.466C1485.27 257.466 1488.38 256.182 1490.46 253.8C1492.44 251.526 1493.17 248.602 1493.36 245.886L1483.19 243.36ZM1479.29 247.662C1477.78 247.662 1476.91 247.207 1476.34 246.745L1470.66 253.677C1473.69 256.157 1477.37 257.466 1481.26 257.466L1479.29 247.662ZM1476.54 246.914C1474.17 244.81 1472.35 241.989 1471.28 236.682H1461.28C1462.7 243.727 1465.54 249.142 1470.47 253.509L1476.54 246.914ZM1471.28 236.682L1445.14 106.684H1435.14L1461.28 236.682H1471.28ZM1445.14 106.684C1444.61 104.025 1444.49 102.039 1444.77 100.465L1434.72 97.0222C1434.15 100.153 1434.49 103.462 1435.14 106.684H1445.14ZM1444.81 100.185C1444.98 98.7212 1445.39 97.5522 1446 96.8052C1446.52 96.1769 1447.27 95.7042 1448.73 95.7042L1446.76 85.9004C1442.53 85.9004 1439.49 87.4865 1437.54 89.8729C1435.68 92.1405 1434.94 94.942 1434.68 97.3018L1444.81 100.185ZM1448.73 95.7042C1450.42 95.7042 1451.55 96.2661 1451.98 96.6213L1457.66 89.689C1454.5 87.1032 1450.48 85.9004 1446.76 85.9004L1448.73 95.7042ZM1451.61 96.2933C1454.1 98.6663 1455.7 101.53 1456.74 106.684H1466.74C1465.41 100.074 1462.96 94.7028 1458.03 90.0171L1451.61 96.2933ZM1456.74 106.684L1463.42 139.919H1473.42L1466.74 106.684H1456.74ZM1469.41 144.821H1501.81L1499.84 135.017H1467.44L1469.41 144.821ZM1552.49 278.446H1547.49L1548.47 283.348H1553.47L1552.49 278.446ZM1626.59 278.446L1627.57 283.348H1632.57L1631.59 278.446H1626.59ZM1620.02 245.8H1625.02L1624.04 240.898H1619.04L1620.02 245.8ZM1578.32 245.8H1573.32L1574.31 250.701H1579.31L1578.32 245.8ZM1566.37 186.389L1565.39 181.487H1560.39L1561.37 186.389H1566.37ZM1596.37 186.389L1597.36 191.291H1602.36L1601.37 186.389H1596.37ZM1589.4 151.684H1594.4L1593.41 146.782H1588.41L1589.4 151.684ZM1559.4 151.684H1554.4L1555.38 156.585H1560.38L1559.4 151.684ZM1547.98 94.9199L1547 90.018H1542L1542.98 94.9199H1547.98ZM1589.68 94.9199L1590.67 99.8218H1595.67L1594.68 94.9199H1589.68ZM1583.12 62.2734H1588.12L1587.13 57.3715H1582.13L1583.12 62.2734ZM1509.02 62.2734L1508.03 57.3715H1503.03L1504.02 62.2734H1509.02ZM1553.47 283.348H1627.57L1625.6 273.544H1551.5L1553.47 283.348ZM1631.59 278.446L1625.02 245.8H1615.02L1621.59 278.446H1631.59ZM1619.04 240.898H1577.34L1579.31 250.701H1621.01L1619.04 240.898ZM1583.32 245.8L1571.37 186.389H1561.37L1573.32 245.8H1583.32ZM1567.36 191.291H1597.36L1595.39 181.487H1565.39L1567.36 191.291ZM1601.37 186.389L1594.4 151.684H1584.4L1591.37 186.389H1601.37ZM1588.41 146.782H1558.41L1560.38 156.585H1590.38L1588.41 146.782ZM1564.4 151.684L1552.98 94.9199H1542.98L1554.4 151.684H1564.4ZM1548.97 99.8218H1590.67L1588.7 90.018H1547L1548.97 99.8218ZM1594.68 94.9199L1588.12 62.2734H1578.12L1584.68 94.9199H1594.68ZM1582.13 57.3715H1508.03L1510 67.1753H1584.1L1582.13 57.3715ZM1504.02 62.2734L1547.49 278.446H1557.49L1514.02 62.2734H1504.02ZM1734.78 278.446L1735.76 283.348H1741.83L1739.5 277.513L1734.78 278.446ZM1693.02 173.742L1689.39 169.694L1687.04 171.511L1688.3 174.675L1693.02 173.742ZM1601.01 62.2734L1600.02 57.3715H1595.02L1596.01 62.2734H1601.01ZM1644.48 278.446H1639.48L1640.46 283.348H1645.46L1644.48 278.446ZM1676.88 278.446L1677.86 283.348H1682.86L1681.88 278.446H1676.88ZM1658.54 187.271L1657.56 182.369H1652.56L1653.54 187.271H1658.54ZM1667.24 187.271L1671.99 186.4L1670.44 182.369H1666.26L1667.24 187.271ZM1702.38 278.446L1697.63 279.317L1699.19 283.348H1703.36L1702.38 278.446ZM1666.98 153.154L1671.02 156.843L1671.02 156.843L1666.98 153.154ZM1652.63 157.86H1647.63L1648.62 162.762H1653.62L1652.63 157.86ZM1639.74 93.7434L1638.75 88.8416H1633.75L1634.74 93.7434H1639.74ZM1655.92 98.1551L1658.47 94.4661L1658.47 94.4661L1655.92 98.1551ZM1739.5 277.513L1697.74 172.809L1688.3 174.675L1730.06 279.379L1739.5 277.513ZM1696.66 177.79C1703.02 172.864 1706.42 164.874 1707.75 155.721C1709.08 146.524 1708.38 135.747 1706.15 124.625H1696.15C1698.23 134.973 1698.79 144.637 1697.64 152.573C1696.49 160.551 1693.67 166.385 1689.39 169.694L1696.66 177.79ZM1706.15 124.625C1701.93 103.68 1694.32 86.7231 1681.9 74.969C1669.3 63.036 1652.72 57.3715 1632.42 57.3715L1634.39 67.1753C1652.8 67.1753 1665.98 72.2459 1675.51 81.2685C1685.23 90.4698 1692.14 104.689 1696.15 124.625H1706.15ZM1632.42 57.3715H1600.02L1601.99 67.1753H1634.39L1632.42 57.3715ZM1596.01 62.2734L1639.48 278.446H1649.48L1606.01 62.2734H1596.01ZM1645.46 283.348H1677.86L1675.89 273.544H1643.49L1645.46 283.348ZM1681.88 278.446L1663.54 187.271H1653.54L1671.88 278.446H1681.88ZM1659.53 192.173H1668.23L1666.26 182.369H1657.56L1659.53 192.173ZM1662.5 188.143L1697.63 279.317L1707.12 277.575L1671.99 186.4L1662.5 188.143ZM1703.36 283.348H1735.76L1733.79 273.544H1701.39L1703.36 283.348ZM1665.18 125.802C1668.12 140.385 1665.66 146.658 1662.95 149.465L1671.02 156.843C1676.25 151.415 1678.4 141.806 1675.18 125.802H1665.18ZM1662.95 149.465C1660.15 152.366 1655.84 152.958 1651.64 152.958L1653.62 162.762C1658.42 162.762 1665.87 162.177 1671.02 156.843L1662.95 149.465ZM1657.63 157.86L1644.74 93.7434H1634.74L1647.63 157.86H1657.63ZM1640.72 98.6453C1645.17 98.6453 1649.52 99.0239 1653.37 101.844L1658.47 94.4661C1651.07 89.0512 1643.3 88.8416 1638.75 88.8416L1640.72 98.6453ZM1653.37 101.844C1657.18 104.632 1662.24 111.174 1665.18 125.802H1675.18C1671.97 109.842 1665.92 99.9137 1658.47 94.4661L1653.37 101.844Z" fill="black"/>
</g>
<defs>
<filter id="filter0_d" x="0" y="0" width="423.229" height="377.5" filterUnits="userSpaceOnUse" color-interpolation-filters="sRGB">
<feFlood flood-opacity="0" result="BackgroundImageFix"/>
<feColorMatrix in="SourceAlpha" type="matrix" values="0 0 0 0 0 0 0 0 0 0 0 0 0 0 0 0 0 0 127 0"/>
<feOffset dy="9"/>
<feGaussianBlur stdDeviation="5"/>
<feColorMatrix type="matrix" values="0 0 0 0 0 0 0 0 0 0 0 0 0 0 0 0 0 0 0.3 0"/>
<feBlend mode="normal" in2="BackgroundImageFix" result="effect1_dropShadow"/>
<feBlend mode="normal" in="SourceGraphic" in2="effect1_dropShadow" result="shape"/>
</filter>
<filter id="filter1_d" x="85.6248" y="92" width="253.626" height="201.522" filterUnits="userSpaceOnUse" color-interpolation-filters="sRGB">
<feFlood flood-opacity="0" result="BackgroundImageFix"/>
<feColorMatrix in="SourceAlpha" type="matrix" values="0 0 0 0 0 0 0 0 0 0 0 0 0 0 0 0 0 0 127 0"/>
<feOffset dx="-1" dy="4"/>
<feGaussianBlur stdDeviation="1"/>
<feColorMatrix type="matrix" values="0 0 0 0 0 0 0 0 0 0 0 0 0 0 0 0 0 0 0.34 0"/>
<feBlend mode="normal" in2="BackgroundImageFix" result="effect1_dropShadow"/>
<feBlend mode="normal" in="SourceGraphic" in2="effect1_dropShadow" result="shape"/>
</filter>
<filter id="filter2_d" x="436.648" y="54.0107" width="1315.18" height="250.69" filterUnits="userSpaceOnUse" color-interpolation-filters="sRGB">
<feFlood flood-opacity="0" result="BackgroundImageFix"/>
<feColorMatrix in="SourceAlpha" type="matrix" values="0 0 0 0 0 0 0 0 0 0 0 0 0 0 0 0 0 0 127 0"/>
<feOffset dy="9"/>
<feGaussianBlur stdDeviation="5"/>
<feColorMatrix type="matrix" values="0 0 0 0 0 0 0 0 0 0 0 0 0 0 0 0 0 0 0.3 0"/>
<feBlend mode="normal" in2="BackgroundImageFix" result="effect1_dropShadow"/>
<feBlend mode="normal" in="SourceGraphic" in2="effect1_dropShadow" result="shape"/>
</filter>
<linearGradient id="paint0_linear" x1="211.614" y1="1" x2="211.614" y2="358.5" gradientUnits="userSpaceOnUse">
<stop stop-color="#65E2C5"/>
<stop offset="1" stop-color="#05BAB7"/>
</linearGradient>
</defs>
</svg>
