<svg width="1302" height="378" viewBox="0 0 1302 378" fill="none" xmlns="http://www.w3.org/2000/svg">
<g filter="url(#filter0_d)">
<path d="M1174.53 358.5H129.421C118.153 358.5 107.715 352.573 101.941 342.896L14.5196 196.373C8.50071 186.285 8.49298 173.71 14.4994 163.615L101.947 16.6379C107.716 6.94165 118.165 1 129.447 1L1174.5 1.00001C1185.9 1.00001 1196.44 7.06609 1202.17 16.9242L1287.56 163.902C1293.35 173.853 1293.34 186.143 1287.54 196.087L1202.18 342.609C1196.44 352.449 1185.91 358.5 1174.53 358.5Z" fill="url(#paint0_linear)"/>
</g>
<g filter="url(#filter1_d)">
<path fill-rule="evenodd" clip-rule="evenodd" d="M1120.99 78.3075H986.901C975.223 78.3346 964.031 82.9875 955.773 91.2483C947.516 99.5091 942.865 110.705 942.838 122.388V237.92C942.865 249.602 947.516 260.798 955.773 269.059C964.031 277.32 975.223 281.973 986.901 282H1120.99C1132.66 281.959 1143.84 277.301 1152.08 269.041C1160.33 260.782 1164.97 249.593 1165 237.92V122.388C1164.97 110.714 1160.33 99.5257 1152.08 91.2663C1143.84 83.0069 1132.66 78.3481 1120.99 78.3075ZM987.823 122.388H1120.42V237.92H987.721V122.388H987.823ZM715.552 122.388H900.004C899.977 110.705 895.326 99.5091 887.068 91.2483C878.81 82.9875 867.618 78.3346 855.94 78.3075H714.168C702.499 78.3481 691.32 83.0069 683.074 91.2663C674.827 99.5257 670.183 110.714 670.156 122.388V237.92C670.183 249.593 674.827 260.782 683.074 269.041C691.32 277.301 702.499 281.959 714.168 282H855.889C867.567 281.973 878.759 277.32 887.017 269.059C895.274 260.798 899.925 249.602 899.953 237.92V161.753H750.085C750.112 170.771 753.705 179.412 760.08 185.789C766.454 192.166 775.092 195.76 784.106 195.787H857.938V237.971H715.295V122.388H715.552ZM446.777 122.08H623.031C623.004 110.407 618.36 99.2181 610.114 90.9588C601.867 82.6994 590.688 78.0406 579.019 78H442.371C430.693 78.0271 419.501 82.68 411.243 90.9408C402.985 99.2016 398.334 110.398 398.307 122.08V157.96C398.321 169.647 402.967 180.851 411.228 189.114C419.489 197.378 430.688 202.027 442.371 202.04H579.121V237.92H398.307C398.334 249.602 402.985 260.798 411.243 269.059C419.501 277.32 430.693 281.973 442.371 282H583.323C594.992 281.959 606.171 277.301 614.417 269.041C622.664 260.782 627.308 249.593 627.335 237.92V202.04C627.322 190.362 622.682 179.166 614.432 170.904C606.183 162.641 594.996 157.987 583.323 157.96H446.521V122.08H446.777ZM193.053 122.08H359.418C359.391 110.398 354.74 99.2016 346.483 90.9408C338.225 82.68 327.033 78.0271 315.355 78H181.064C169.386 78.0271 158.193 82.68 149.936 90.9408C141.678 99.2016 137.027 110.398 137 122.08V237.612C137.027 249.295 141.678 260.491 149.936 268.752C158.193 277.013 169.386 281.665 181.064 281.692H315.099C326.777 281.665 337.969 277.013 346.226 268.752C354.484 260.491 359.135 249.295 359.162 237.612H192.797V122.08H193.053Z" fill="white"/>
</g>
<defs>
<filter id="filter0_d" x="0" y="0" width="1301.89" height="377.5" filterUnits="userSpaceOnUse" color-interpolation-filters="sRGB">
<feFlood flood-opacity="0" result="BackgroundImageFix"/>
<feColorMatrix in="SourceAlpha" type="matrix" values="0 0 0 0 0 0 0 0 0 0 0 0 0 0 0 0 0 0 127 0"/>
<feOffset dy="9"/>
<feGaussianBlur stdDeviation="5"/>
<feColorMatrix type="matrix" values="0 0 0 0 0 0 0 0 0 0 0 0 0 0 0 0 0 0 0.3 0"/>
<feBlend mode="normal" in2="BackgroundImageFix" result="effect1_dropShadow"/>
<feBlend mode="normal" in="SourceGraphic" in2="effect1_dropShadow" result="shape"/>
</filter>
<filter id="filter1_d" x="113" y="78" width="1052" height="228" filterUnits="userSpaceOnUse" color-interpolation-filters="sRGB">
<feFlood flood-opacity="0" result="BackgroundImageFix"/>
<feColorMatrix in="SourceAlpha" type="matrix" values="0 0 0 0 0 0 0 0 0 0 0 0 0 0 0 0 0 0 127 0"/>
<feOffset dx="-14" dy="14"/>
<feGaussianBlur stdDeviation="5"/>
<feColorMatrix type="matrix" values="0 0 0 0 0 0 0 0 0 0 0 0 0 0 0 0 0 0 0.34 0"/>
<feBlend mode="normal" in2="BackgroundImageFix" result="effect1_dropShadow"/>
<feBlend mode="normal" in="SourceGraphic" in2="effect1_dropShadow" result="shape"/>
</filter>
<linearGradient id="paint0_linear" x1="650.947" y1="1" x2="650.947" y2="358.5" gradientUnits="userSpaceOnUse">
<stop stop-color="#65E2C5"/>
<stop offset="1" stop-color="#05BAB7"/>
</linearGradient>
</defs>
</svg>
